<svg width="1424" height="544" viewBox="0 0 1424 544" fill="none" xmlns="http://www.w3.org/2000/svg">
<g clip-path="url(#clip0_212_16580)" filter="url(#filter0_f_212_16580)">
<path opacity="0.15" d="M1358.19 237.88C1391.7 274.97 1418.88 339.451 1368.8 384.973C1363.63 389.666 1315.18 432.248 1242.3 426.96C1153.54 420.52 1135.34 350.812 1037.38 332.716C931.298 313.119 869.037 379.425 817.231 359.056C755.971 334.97 748.451 205.071 859.331 149.396C992.906 82.3255 1268.08 138.151 1358.19 237.88Z" fill="#EBC136"/>
<path opacity="0.15" d="M523.245 429.639C554.307 410.569 588.155 372.148 567.134 333.285C564.966 329.278 544.262 292.654 495.679 283.834C436.505 273.09 407.162 316.52 339.092 311.996C265.375 307.096 241.688 252.301 202.971 257.114C157.189 262.806 119.627 348.21 177.514 404.149C247.248 471.538 439.723 480.917 523.245 429.639Z" fill="#EBC136"/>
<path opacity="0.15" d="M705.575 321.89C690.187 300.799 674.464 260.221 687.947 222.859C689.337 219.007 702.519 183.857 728.878 178.297C760.983 171.526 774.013 216.799 810.481 216.823C849.973 216.849 865.817 163.774 886.122 171.155C910.131 179.883 925.044 267.57 890.945 319.508C849.865 382.075 746.953 378.602 705.575 321.89Z" fill="#EBC136"/>
<path opacity="0.15" d="M693.467 274.802C710.284 264.124 728.622 242.633 717.276 220.936C716.107 218.699 704.931 198.254 678.654 193.363C646.649 187.407 630.745 211.693 593.923 209.218C554.047 206.538 541.27 175.943 520.321 178.661C495.55 181.876 475.171 229.62 506.448 260.828C544.128 298.423 648.247 303.514 693.467 274.802Z" fill="#EBC136"/>
<path opacity="0.15" d="M1417.62 248.365C1435.76 232.046 1455.7 199.494 1443.95 167.192C1442.74 163.861 1431.14 133.43 1403.17 126.595C1369.09 118.269 1351.7 154.965 1312.42 151.946C1269.89 148.678 1256.75 103.066 1234.34 107.534C1207.83 112.818 1185.28 184.751 1218.15 230.934C1257.76 286.569 1368.86 292.244 1417.62 248.365Z" fill="#8047F8"/>
<path opacity="0.15" d="M1429.61 377.852C1443.71 388.804 1459.15 410.725 1449.84 432.622C1448.88 434.88 1439.7 455.511 1417.82 460.261C1391.16 466.047 1377.73 441.312 1347.03 443.533C1313.79 445.938 1303.35 476.841 1285.86 473.922C1265.17 470.471 1247.84 421.932 1273.71 390.552C1304.88 352.749 1391.69 348.404 1429.61 377.852Z" fill="#8047F8"/>
<path opacity="0.15" d="M230.937 136.892C243.507 158.616 255.932 200.056 243.695 237.492C242.433 241.351 230.5 276.558 208.055 281.502C180.717 287.524 170.675 241.405 139.792 240.442C106.347 239.4 91.7653 292.665 74.7319 284.678C54.5904 275.234 43.883 186.175 73.8998 134.53C110.06 72.3152 197.139 78.4763 230.937 136.892Z" fill="#EBC136"/>
<path opacity="0.15" d="M872.507 432.947C846.621 413.727 821.462 375.18 847.926 336.528C850.654 332.543 876.434 296.123 923.6 287.62C981.048 277.262 1001.11 320.78 1065.84 316.683C1135.94 312.246 1167.66 257.712 1203.2 262.753C1245.23 268.713 1265.76 354.166 1201.71 409.631C1124.55 476.449 942.112 484.627 872.507 432.947Z" fill="#EBC136"/>
<path opacity="0.15" d="M798.922 399.538C820.564 380.513 843.249 343.904 825.967 310.187C824.185 306.71 807.248 274.989 771.43 269.962C727.805 263.84 708.654 304.687 658.868 304.695C604.953 304.704 584.92 256.808 556.979 263.46C523.939 271.327 500.942 350.444 545.931 397.321C600.129 453.792 740.728 450.695 798.922 399.538Z" fill="#8047F8"/>
<path opacity="0.15" d="M846.472 141.004C887.019 151.666 930.079 171.465 899.336 188.257C896.167 189.989 865.993 205.762 800.11 207.009C719.863 208.528 683.181 186.67 591.369 184.784C491.943 182.742 456.601 206.767 404.852 202.269C343.66 196.95 298.602 155.145 380 132.591C478.058 105.42 737.443 112.335 846.472 141.004Z" fill="#8047F8"/>
<path opacity="0.15" d="M179.139 382.866C198.225 360.714 218.35 318.381 203.454 279.978C201.918 276.018 187.31 239.899 155.98 234.685C117.82 228.335 100.761 275.475 57.1632 276.25C9.94912 277.089 -7.25576 222.467 -31.7709 230.526C-60.7595 240.056 -81.4579 331.145 -42.3915 384.214C4.67083 448.144 127.816 442.431 179.139 382.866Z" fill="#8047F8"/>
</g>
<defs>
<filter id="filter0_f_212_16580" x="-176" y="-160" width="1760" height="864" filterUnits="userSpaceOnUse" color-interpolation-filters="sRGB">
<feFlood flood-opacity="0" result="BackgroundImageFix"/>
<feBlend mode="normal" in="SourceGraphic" in2="BackgroundImageFix" result="shape"/>
<feGaussianBlur stdDeviation="80" result="effect1_foregroundBlur_212_16580"/>
</filter>
<clipPath id="clip0_212_16580">
<rect width="1440" height="544" fill="white" transform="translate(-16)"/>
</clipPath>
</defs>
</svg>
